<svg width="162" height="40" viewBox="0 0 162 40" fill="none" xmlns="http://www.w3.org/2000/svg">
  <rect width="162" height="40" rx="20" fill="#FFFFFF"/>
  <path d="M20 11.5h10.6c4.4 0 7.4 2.7 7.4 6.6 0 4.4-3.5 7.3-8.5 7.3h-3.9v6.4H20V11.5Zm10 9.4c1.9 0 3-0.9 3-2.3s-1-2.2-3-2.2h-3.5v4.5H30Z" fill="#0F172A"/>
  <path d="M45.4 11.5h7.2v20.7h-7.2V11.5Z" fill="#0F172A"/>
  <path d="M60.2 11.5h7.2v20.7h-7.2V11.5Z" fill="#0F172A"/>
  <path d="M74.6 11.5H91c6.8 0 11.3 3.9 11.3 10.4s-4.5 10.3-11.3 10.3H74.6V11.5Zm15.8 14.6c2.9 0 4.6-1.6 4.6-4.2 0-2.7-1.8-4.3-4.6-4.3h-8.6V26h8.6Z" fill="#0F172A"/>
  <path d="M107.4 11.5h7.2v7.7l7.1-7.7h8.8l-9.3 9.8 9.6 10.9h-9.2l-6.9-7.9v7.9h-7.2V11.5Z" fill="#0055A4"/>
  <path d="M139.5 11.1c2.4 0 4.1 1.8 4.1 4.2s-1.7 4.2-4.1 4.2-4.1-1.8-4.1-4.2 1.7-4.2 4.1-4.2Zm-3.3 7.8h6.6v13.3h-6.6V18.9Z" fill="#0F172A"/>
</svg>
